PS_ngait_og_ss3_kinetics.mot
version=1
nRows=32
nColumns=28
inDegrees=yes
endheader
time	1_ground_force_vx	1_ground_force_vy	1_ground_force_vz	1_ground_force_px	1_ground_force_py	1_ground_force_pz	2_ground_force_vx	2_ground_force_vy	2_ground_force_vz	2_ground_force_px	2_ground_force_py	2_ground_force_pz	3_ground_force_vx	3_ground_force_vy	3_ground_force_vz	3_ground_force_px	3_ground_force_py	3_ground_force_pz	1_ground_torque_x	1_ground_torque_y	1_ground_torque_z	2_ground_torque_x	2_ground_torque_y	2_ground_torque_z	3_ground_torque_x	3_ground_torque_y	3_ground_torque_z
  0.54166667	 51.69544395	777.39868372	 63.55416110	  0.53158518	 -0.00600000	  0.16169363	  0.00000000	  0.00000000	  0.00000000	 -0.30000000	 -0.00600000	  0.20000000	  0.00000000	  0.00000000	  0.00000000	  0.90000000	 -0.00600000	  0.20000000	  0.00000000	 -2.04151921	  0.00000000	  0.00000000	  0.00000000	  0.00000000	  0.00000000	  0.00000000	  0.00000000
  0.54250000	 51.94131166	777.45954931	 63.79181938	  0.53213785	 -0.00600000	  0.16157066	  0.00000000	  0.00000000	  0.00000000	 -0.30000000	 -0.00600000	  0.20000000	  0.00000000	  0.00000000	  0.00000000	  0.90000000	 -0.00600000	  0.20000000	  0.00000000	 -2.01551619	  0.00000000	  0.00000000	  0.00000000	  0.00000000	  0.00000000	  0.00000000	  0.00000000
  0.54333333	 52.19884012	777.51087442	 64.02780553	  0.53269385	 -0.00600000	  0.16145357	  0.00000000	  0.00000000	  0.00000000	 -0.30000000	 -0.00600000	  0.20000000	  0.00000000	  0.00000000	  0.00000000	  0.90000000	 -0.00600000	  0.20000000	  0.00000000	 -1.99386319	  0.00000000	  0.00000000	  0.00000000	  0.00000000	  0.00000000	  0.00000000	  0.00000000
  0.54416667	 52.46493868	777.55179225	 64.26002242	  0.53325375	 -0.00600000	  0.16134153	  0.00000000	  0.00000000	  0.00000000	 -0.30000000	 -0.00600000	  0.20000000	  0.00000000	  0.00000000	  0.00000000	  0.90000000	 -0.00600000	  0.20000000	  0.00000000	 -1.97633811	  0.00000000	  0.00000000	  0.00000000	  0.00000000	  0.00000000	  0.00000000	  0.00000000
  0.54500000	 52.73842589	777.58303114	 64.48640270	  0.53381581	 -0.00600000	  0.16123380	  0.00000000	  0.00000000	  0.00000000	 -0.30000000	 -0.00600000	  0.20000000	  0.00000000	  0.00000000	  0.00000000	  0.90000000	 -0.00600000	  0.20000000	  0.00000000	 -1.96224886	  0.00000000	  0.00000000	  0.00000000	  0.00000000	  0.00000000	  0.00000000	  0.00000000
  0.54583333	 53.01915907	777.60853014	 64.70571419	  0.53437626	 -0.00600000	  0.16113068	  0.00000000	  0.00000000	  0.00000000	 -0.30000000	 -0.00600000	  0.20000000	  0.00000000	  0.00000000	  0.00000000	  0.90000000	 -0.00600000	  0.20000000	  0.00000000	 -1.95021706	  0.00000000	  0.00000000	  0.00000000	  0.00000000	  0.00000000	  0.00000000	  0.00000000
  0.54666667	 53.30582485	777.63507991	 64.91794524	  0.53493110	 -0.00600000	  0.16103415	  0.00000000	  0.00000000	  0.00000000	 -0.30000000	 -0.00600000	  0.20000000	  0.00000000	  0.00000000	  0.00000000	  0.90000000	 -0.00600000	  0.20000000	  0.00000000	 -1.93833371	  0.00000000	  0.00000000	  0.00000000	  0.00000000	  0.00000000	  0.00000000	  0.00000000
  0.54750000	 53.59620903	777.67197800	 65.12396096	  0.53547699	 -0.00600000	  0.16094829	  0.00000000	  0.00000000	  0.00000000	 -0.30000000	 -0.00600000	  0.20000000	  0.00000000	  0.00000000	  0.00000000	  0.90000000	 -0.00600000	  0.20000000	  0.00000000	 -1.92454237	  0.00000000	  0.00000000	  0.00000000	  0.00000000	  0.00000000	  0.00000000	  0.00000000
  0.54833333	 53.88919929	777.73167684	 65.32480602	  0.53601085	 -0.00600000	  0.16087884	  0.00000000	  0.00000000	  0.00000000	 -0.30000000	 -0.00600000	  0.20000000	  0.00000000	  0.00000000	  0.00000000	  0.90000000	 -0.00600000	  0.20000000	  0.00000000	 -1.90699911	  0.00000000	  0.00000000	  0.00000000	  0.00000000	  0.00000000	  0.00000000	  0.00000000
  0.54916667	 54.18514822	777.83026768	 65.52040228	  0.53652981	 -0.00600000	  0.16083073	  0.00000000	  0.00000000	  0.00000000	 -0.30000000	 -0.00600000	  0.20000000	  0.00000000	  0.00000000	  0.00000000	  0.90000000	 -0.00600000	  0.20000000	  0.00000000	 -1.88437865	  0.00000000	  0.00000000	  0.00000000	  0.00000000	  0.00000000	  0.00000000	  0.00000000
  0.55000000	 54.48516225	777.98513251	 65.70782745	  0.53703212	 -0.00600000	  0.16080597	  0.00000000	  0.00000000	  0.00000000	 -0.30000000	 -0.00600000	  0.20000000	  0.00000000	  0.00000000	  0.00000000	  0.90000000	 -0.00600000	  0.20000000	  0.00000000	 -1.85630440	  0.00000000	  0.00000000	  0.00000000	  0.00000000	  0.00000000	  0.00000000	  0.00000000
  0.55083333	 54.79150531	778.20971504	 65.88049107	  0.53751744	 -0.00600000	  0.16080484	  0.00000000	  0.00000000	  0.00000000	 -0.30000000	 -0.00600000	  0.20000000	  0.00000000	  0.00000000	  0.00000000	  0.90000000	 -0.00600000	  0.20000000	  0.00000000	 -1.82390139	  0.00000000	  0.00000000	  0.00000000	  0.00000000	  0.00000000	  0.00000000	  0.00000000
  0.55166667	 55.10804976	778.51023965	 66.02896904	  0.53798598	 -0.00600000	  0.16082751	  0.00000000	  0.00000000	  0.00000000	 -0.30000000	 -0.00600000	  0.20000000	  0.00000000	  0.00000000	  0.00000000	  0.90000000	 -0.00600000	  0.20000000	  0.00000000	 -1.78969633	  0.00000000	  0.00000000	  0.00000000	  0.00000000	  0.00000000	  0.00000000	  0.00000000
  0.55250000	 55.43951583	778.88696589	 66.14320433	  0.53843802	 -0.00600000	  0.16087317	  0.00000000	  0.00000000	  0.00000000	 -0.30000000	 -0.00600000	  0.20000000	  0.00000000	  0.00000000	  0.00000000	  0.90000000	 -0.00600000	  0.20000000	  0.00000000	 -1.75668826	  0.00000000	  0.00000000	  0.00000000	  0.00000000	  0.00000000	  0.00000000	  0.00000000
  0.55333333	 55.79080131	779.33620426	 66.21503811	  0.53887508	 -0.00600000	  0.16093956	  0.00000000	  0.00000000	  0.00000000	 -0.30000000	 -0.00600000	  0.20000000	  0.00000000	  0.00000000	  0.00000000	  0.90000000	 -0.00600000	  0.20000000	  0.00000000	 -1.72791515	  0.00000000	  0.00000000	  0.00000000	  0.00000000	  0.00000000	  0.00000000	  0.00000000
  0.55416667	 56.16732510	779.84996259	 66.23978701	  0.53930017	 -0.00600000	  0.16102410	  0.00000000	  0.00000000	  0.00000000	 -0.30000000	 -0.00600000	  0.20000000	  0.00000000	  0.00000000	  0.00000000	  0.90000000	 -0.00600000	  0.20000000	  0.00000000	 -1.70652001	  0.00000000	  0.00000000	  0.00000000	  0.00000000	  0.00000000	  0.00000000	  0.00000000
  0.55500000	 56.57474203	780.41573701	 66.21651560	  0.53971565	 -0.00600000	  0.16112403	  0.00000000	  0.00000000	  0.00000000	 -0.30000000	 -0.00600000	  0.20000000	  0.00000000	  0.00000000	  0.00000000	  0.90000000	 -0.00600000	  0.20000000	  0.00000000	 -1.69498959	  0.00000000	  0.00000000	  0.00000000	  0.00000000	  0.00000000	  0.00000000	  0.00000000
  0.55583333	 57.01676132	781.01985050	 66.14758154	  0.54012149	 -0.00600000	  0.16123554	  0.00000000	  0.00000000	  0.00000000	 -0.30000000	 -0.00600000	  0.20000000	  0.00000000	  0.00000000	  0.00000000	  0.90000000	 -0.00600000	  0.20000000	  0.00000000	 -1.69414110	  0.00000000	  0.00000000	  0.00000000	  0.00000000	  0.00000000	  0.00000000	  0.00000000
  0.55666667	 57.49355470	781.65199856	 66.03808277	  0.54051647	 -0.00600000	  0.16135395	  0.00000000	  0.00000000	  0.00000000	 -0.30000000	 -0.00600000	  0.20000000	  0.00000000	  0.00000000	  0.00000000	  0.90000000	 -0.00600000	  0.20000000	  0.00000000	 -1.70317200	  0.00000000	  0.00000000	  0.00000000	  0.00000000	  0.00000000	  0.00000000	  0.00000000
  0.55750000	 58.00312088	782.30653707	 65.89532474	  0.54089974	 -0.00600000	  0.16147431	  0.00000000	  0.00000000	  0.00000000	 -0.30000000	 -0.00600000	  0.20000000	  0.00000000	  0.00000000	  0.00000000	  0.90000000	 -0.00600000	  0.20000000	  0.00000000	 -1.72026052	  0.00000000	  0.00000000	  0.00000000	  0.00000000	  0.00000000	  0.00000000	  0.00000000
  0.55833333	 58.54347751	782.98116958	 65.72785434	  0.54127055	 -0.00600000	  0.16159098	  0.00000000	  0.00000000	  0.00000000	 -0.30000000	 -0.00600000	  0.20000000	  0.00000000	  0.00000000	  0.00000000	  0.90000000	 -0.00600000	  0.20000000	  0.00000000	 -1.74272005	  0.00000000	  0.00000000	  0.00000000	  0.00000000	  0.00000000	  0.00000000	  0.00000000
  0.55916667	 59.11349507	783.67543049	 65.54391290	  0.54162822	 -0.00600000	  0.16169784	  0.00000000	  0.00000000	  0.00000000	 -0.30000000	 -0.00600000	  0.20000000	  0.00000000	  0.00000000	  0.00000000	  0.90000000	 -0.00600000	  0.20000000	  0.00000000	 -1.76730700	  0.00000000	  0.00000000	  0.00000000	  0.00000000	  0.00000000	  0.00000000	  0.00000000
  0.56000000	 59.71300313	784.38747373	 65.35003335	  0.54197366	 -0.00600000	  0.16178934	  0.00000000	  0.00000000	  0.00000000	 -0.30000000	 -0.00600000	  0.20000000	  0.00000000	  0.00000000	  0.00000000	  0.90000000	 -0.00600000	  0.20000000	  0.00000000	 -1.79127673	  0.00000000	  0.00000000	  0.00000000	  0.00000000	  0.00000000	  0.00000000	  0.00000000
  0.56083333	 60.34185983	785.10879825	 65.15063203	  0.54231032	 -0.00600000	  0.16186120	  0.00000000	  0.00000000	  0.00000000	 -0.30000000	 -0.00600000	  0.20000000	  0.00000000	  0.00000000	  0.00000000	  0.90000000	 -0.00600000	  0.20000000	  0.00000000	 -1.81316551	  0.00000000	  0.00000000	  0.00000000	  0.00000000	  0.00000000	  0.00000000	  0.00000000
  0.56166667	 60.99836197	785.82217785	 64.94844947	  0.54264361	 -0.00600000	  0.16191072	  0.00000000	  0.00000000	  0.00000000	 -0.30000000	 -0.00600000	  0.20000000	  0.00000000	  0.00000000	  0.00000000	  0.90000000	 -0.00600000	  0.20000000	  0.00000000	 -1.83264781	  0.00000000	  0.00000000	  0.00000000	  0.00000000	  0.00000000	  0.00000000	  0.00000000
  0.56250000	 61.67949968	786.50582765	 64.74519963	  0.54297943	 -0.00600000	  0.16193762	  0.00000000	  0.00000000	  0.00000000	 -0.30000000	 -0.00600000	  0.20000000	  0.00000000	  0.00000000	  0.00000000	  0.90000000	 -0.00600000	  0.20000000	  0.00000000	 -1.84999040	  0.00000000	  0.00000000	  0.00000000	  0.00000000	  0.00000000	  0.00000000	  0.00000000
  0.56333333	 62.38249843	787.13960514	 64.54229241	  0.54332321	 -0.00600000	  0.16194404	  0.00000000	  0.00000000	  0.00000000	 -0.30000000	 -0.00600000	  0.20000000	  0.00000000	  0.00000000	  0.00000000	  0.90000000	 -0.00600000	  0.20000000	  0.00000000	 -1.86564907	  0.00000000	  0.00000000	  0.00000000	  0.00000000	  0.00000000	  0.00000000	  0.00000000
  0.56416667	 63.10534185	787.70830459	 64.34137261	  0.54367912	 -0.00600000	  0.16193298	  0.00000000	  0.00000000	  0.00000000	 -0.30000000	 -0.00600000	  0.20000000	  0.00000000	  0.00000000	  0.00000000	  0.90000000	 -0.00600000	  0.20000000	  0.00000000	 -1.88014224	  0.00000000	  0.00000000	  0.00000000	  0.00000000	  0.00000000	  0.00000000	  0.00000000
  0.56500000	 63.84609612	788.20198029	 64.14435715	  0.54404929	 -0.00600000	  0.16190655	  0.00000000	  0.00000000	  0.00000000	 -0.30000000	 -0.00600000	  0.20000000	 -3.41490432	 21.79517042	  1.82317375	  0.83980366	 -0.00600000	  0.29019984	  0.00000000	 -1.89395568	  0.00000000	  0.00000000	  0.00000000	  0.00000000	  0.00000000	  0.79460207	  0.00000000
  0.56583333	 64.60179401	788.61534909	 63.95321520	  0.54443357	 -0.00600000	  0.16186538	  0.00000000	  0.00000000	  0.00000000	 -0.30000000	 -0.00600000	  0.20000000	 -2.40115886	 24.95497373	  1.89061680	  0.84394120	 -0.00600000	  0.29193866	  0.00000000	 -1.90730591	  0.00000000	  0.00000000	  0.00000000	  0.00000000	  0.00000000	  0.91048271	  0.00000000
  0.56666667	 65.36763702	788.94580543	 63.76967288	  0.54483024	 -0.00600000	  0.16180938	  0.00000000	  0.00000000	  0.00000000	 -0.30000000	 -0.00600000	  0.20000000	 -1.13709767	 28.22972900	  1.96350351	  0.84785504	 -0.00600000	  0.29364361	  0.00000000	 -1.92000364	  0.00000000	  0.00000000	  0.00000000	  0.00000000	  0.00000000	  1.02153672	  0.00000000
  0.56750000	 66.13683948	789.18944420	 63.59458649	  0.54523767	 -0.00600000	  0.16173922	  0.00000000	  0.00000000	  0.00000000	 -0.30000000	 -0.00600000	  0.20000000	  0.35381377	 31.61113280	  2.04852204	  0.85154197	 -0.00600000	  0.29530106	  0.00000000	 -1.93175284	  0.00000000	  0.00000000	  0.00000000	  0.00000000	  0.00000000	  1.12548662	  0.00000000
